# xmcd CD database file
#
# Track frame offsets:
#	150
#	22523
#	49644
#	67472
#	83235
#	102394
#	117138
#	140770
#	154561
#	167911
#	186349
#	202365
#	217705
#
# Disc length: 3135 seconds
#
# Revision: 0
# Processed by: cddbd v1.5.2PL0 Copyright (c) Steve Scherf et al.
# Submitted via: CDex 1.51
#
DISCID=b80c3d0d
DTITLE=Generacion Peru - Tiempo de Paz
DYEAR=1900
DGENRE=New Age
TTITLE0=You And Me In Paradise
TTITLE1=Everything I Do (Robin Hood)
TTITLE2=Moments Of Peace
TTITLE3=Dust In The Wind
TTITLE4=Viva Forever
TTITLE5=Whenever, Wherever
TTITLE6=Wind Of Change
TTITLE7=Pasando Los Andes
TTITLE8=Popcorn
TTITLE9=Eden
TTITLE10=Dream Of Pan
TTITLE11=Butterfly
TTITLE12=Veni, Vidi, Vici
EXTD=
EXTT0=
EXTT1=
EXTT2=
EXTT3=
EXTT4=
EXTT5=
EXTT6=
EXTT7=
EXTT8=
EXTT9=
EXTT10=
EXTT11=
EXTT12=
PLAYORDER=
